<?xml version="1.0" standalone="no"?>
<!DOCTYPE svg PUBLIC "-//W3C//DTD SVG 20010904//EN"
 "http://www.w3.org/TR/2001/REC-SVG-20010904/DTD/svg10.dtd">
<svg version="1.0" xmlns="http://www.w3.org/2000/svg"
 width="512.000000pt" height="512.000000pt" viewBox="0 0 512.000000 512.000000"
 preserveAspectRatio="xMidYMid meet">
<metadata>
Created by potrace 1.11, written by Peter Selinger 2001-2013
</metadata>
<g transform="translate(0.000000,512.000000) scale(0.100000,-0.100000)"
fill="#000000" stroke="none">
<path d="M909 4158 c0 -2 -188 -651 -417 -1443 l-417 -1440 224 -3 c123 -1
226 0 229 2 3 4 132 514 177 704 l5 22 422 -2 422 -3 90 -362 91 -363 243 0
c227 0 243 1 238 18 -3 9 -177 659 -387 1445 l-383 1427 -268 0 c-147 0 -268
-1 -269 -2z m388 -1135 c89 -356 160 -649 159 -650 -2 -2 -149 -2 -327 -1
l-325 3 160 648 c88 356 163 647 166 647 3 0 78 -291 167 -647z"/>
<path d="M2500 2715 l0 -1445 200 0 200 0 2 1220 3 1219 324 -1187 c178 -653
328 -1202 333 -1219 l9 -33 174 0 174 0 9 32 c5 18 157 564 337 1213 180 649
332 1184 337 1190 4 5 8 -541 8 -1213 l0 -1222 220 0 220 0 0 1445 0 1445
-338 0 -338 0 -294 -1035 c-161 -570 -297 -1030 -301 -1023 -6 12 -569 2041
-569 2053 0 3 -160 5 -355 5 l-355 0 0 -1445z"/>
</g>
</svg>
