<?xml version="1.0" standalone="no"?>
<!DOCTYPE svg PUBLIC "-//W3C//DTD SVG 20010904//EN"
 "http://www.w3.org/TR/2001/REC-SVG-20010904/DTD/svg10.dtd">
<svg version="1.0" xmlns="http://www.w3.org/2000/svg"
 width="512.000000pt" height="512.000000pt" viewBox="0 0 512.000000 512.000000"
 preserveAspectRatio="xMidYMid meet">
<metadata>
Created by potrace 1.11, written by Peter Selinger 2001-2013
</metadata>
<g transform="translate(0.000000,512.000000) scale(0.100000,-0.100000)"
fill="#000000" stroke="none">
<path d="M1061 4748 c-19 -61 -741 -2565 -741 -2572 0 -3 92 -6 204 -6 l204 0
79 323 79 322 385 3 384 2 81 -322 80 -323 218 -3 218 -2 -5 22 c-3 13 -160
600 -349 1305 l-343 1283 -242 0 -241 0 -11 -32z m361 -995 c81 -323 145 -589
144 -590 -2 -2 -136 -2 -297 -1 l-295 3 145 588 c80 323 148 587 151 587 3 0
71 -264 152 -587z"/>
<path d="M2510 3475 l0 -1305 180 0 180 0 0 1107 c0 608 2 1104 5 1101 5 -4
605 -2191 605 -2203 0 -3 71 -5 158 -5 l157 0 304 1093 c167 600 307 1099 312
1107 5 8 9 -483 9 -1092 l0 -1108 200 0 200 0 0 1305 0 1305 -307 -2 -307 -3
-138 -485 c-75 -267 -195 -687 -265 -934 -91 -321 -129 -443 -135 -430 -5 11
-122 431 -262 934 l-253 915 -321 3 -322 2 0 -1305z"/>
<path d="M2870 1789 c-134 -26 -256 -125 -324 -263 -96 -194 -120 -565 -55
-836 68 -288 262 -444 529 -427 191 13 323 101 405 272 120 250 120 741 0 991
-100 208 -315 310 -555 263z m205 -208 c84 -38 131 -119 167 -286 18 -84 17
-439 -1 -530 -33 -167 -75 -241 -157 -281 -112 -55 -242 -12 -296 96 -58 115
-84 294 -75 520 8 200 38 332 94 412 53 78 179 110 268 69z"/>
<path d="M4135 1785 c-130 -28 -218 -87 -288 -192 -83 -126 -119 -248 -138
-459 -28 -306 40 -577 182 -729 98 -104 221 -152 369 -142 117 8 183 38 262
118 65 66 67 67 72 41 3 -15 10 -53 16 -84 l11 -58 65 0 64 0 0 385 0 385
-245 0 -245 0 0 -100 0 -100 130 0 130 0 0 -47 c0 -65 -24 -172 -49 -220 -70
-138 -254 -166 -371 -57 -86 80 -126 211 -137 439 -10 234 28 437 103 538 81
110 245 130 344 41 40 -37 68 -92 96 -192 10 -35 22 -61 28 -59 6 2 55 15 109
28 53 12 97 27 97 32 0 26 -35 138 -60 194 -89 196 -305 291 -545 238z"/>
<path d="M380 1030 l0 -740 268 0 c274 0 365 8 448 36 103 35 171 102 216 214
18 45 22 75 22 165 1 100 -2 116 -27 171 -34 74 -92 132 -170 171 l-58 29 38
17 c58 25 106 70 138 128 29 52 30 59 30 179 0 145 -14 187 -87 266 -82 90
-157 104 -549 104 l-269 0 0 -740z m536 535 c88 -26 125 -84 125 -194 0 -91
-30 -148 -96 -181 -44 -22 -66 -25 -187 -28 l-138 -4 0 211 0 211 123 0 c80 0
141 -5 173 -15z m9 -611 c109 -28 160 -101 160 -229 0 -96 -24 -151 -83 -189
-53 -35 -109 -45 -254 -46 l-128 0 0 240 0 240 123 0 c79 0 144 -6 182 -16z"/>
<path d="M1600 1030 l0 -740 385 0 385 0 0 100 0 100 -260 0 -260 0 0 640 0
640 -125 0 -125 0 0 -740z"/>
</g>
</svg>
